# xmcd
# Copyright (C) 1995-1998 Ti Kan
#
# Track frame offsets:
#       204
#       20638
#       34721
#       46732
#       57424
#       76538
#       99758
#       114016
#       124033
#       147609
#
# Disc length: 2032 seconds
#
# Revision: 0
# Processed by: cddbd v1.5.2PL0 Copyright (c) Steve Scherf et al.
# Submitted via: CD-Import v1.0
#
DISCID=7207ee0a
DTITLE=Expander - Expander
DYEAR=2007
DGENRE=
TTITLE0=Ne Frau
TTITLE1=Let's Dance
TTITLE2=Godzwilla
TTITLE3=Tell Me Where To Go
TTITLE4=Early One Morning
TTITLE5=Rock'n'roll Show
TTITLE6=Expandit
TTITLE7=Das Internat
TTITLE8=Blue Bayou
TTITLE9=Bonus Track
EXTD=
EXTT0=
EXTT1=
EXTT2=
EXTT3=
EXTT4=
EXTT5=
EXTT6=
EXTT7=
EXTT8=
EXTT9=
PLAYORDER=
